<?xml version="1.0" encoding="UTF-8"?>
<svg width="24px" height="24px" viewBox="0 0 24 24" version="1.1" xmlns="http://www.w3.org/2000/svg" xmlns:xlink="http://www.w3.org/1999/xlink">
    <!-- Generator: Sketch 48.2 (47327) - http://www.bohemiancoding.com/sketch -->
    <title>Icon/24px/Purple/Phone</title>
    <desc>Created with Sketch.</desc>
    <defs></defs>
    <g id="Symbols" stroke="none" stroke-width="1" fill="none" fill-rule="evenodd" stroke-linecap="round" stroke-linejoin="round">
        <g id="Icon/24px/Purple/Phone" stroke="#3F1482" stroke-width="2">
            <path d="M9.35093754,7.82040426 C10.1709357,6.99947021 10.1709357,5.66761152 9.35093754,4.84667747 L7.12003346,2.61570054 C6.29912622,1.79476649 4.96731103,1.79476649 4.1454947,2.61570054 L2.92367926,3.83937411 C1.86186347,4.90122458 1.69731839,6.55582035 2.52458925,7.8076766 C6.07821762,13.1805673 10.8191161,17.9216205 16.1918312,21.4762741 C17.4418284,22.3026628 19.1027338,22.1372032 20.1609132,21.0780801 L21.3836377,19.8544066 C22.2054541,19.0334725 22.2054541,17.7016138 21.3836377,16.8815889 L19.1536428,14.6515211 C18.3336446,13.8287688 17.0018294,13.8287688 16.1800131,14.6515211 L15.4363784,15.3942709 C12.9909294,13.3905736 10.6109347,11.0095921 8.60730285,8.56315412 L9.35093754,7.82040426 Z" id="Page-1"></path>
        </g>
    </g>
</svg>