<?xml version="1.0" encoding="UTF-8"?>
<svg width="98px" height="83px" viewBox="0 0 98 83" version="1.1" xmlns="http://www.w3.org/2000/svg" xmlns:xlink="http://www.w3.org/1999/xlink">
    <!-- Generator: Sketch 48.2 (47327) - http://www.bohemiancoding.com/sketch -->
    <title>Styleguide/Logo/Full/White</title>
    <desc>Created with Sketch.</desc>
    <defs>
        <polygon id="path-1" points="0 81.5815 97.076 81.5815 97.076 0.0005 0 0.0005"></polygon>
    </defs>
    <g id="Symbols" stroke="none" stroke-width="1" fill="none" fill-rule="evenodd">
        <g id="Styleguide/Logo/Full/White">
            <g id="Cochlear-Logo" transform="translate(0.000000, 1.000000)">
                <path d="M79.2217,28.355 C76.8227,35.225 70.8717,40.795 65.9187,40.795 C60.9867,40.795 58.9237,35.225 61.3317,28.355 C63.7267,21.483 69.6807,15.901 74.6097,15.901 C79.5467,15.901 81.6117,21.483 79.2217,28.355 M52.7697,45.376 C45.7837,45.376 42.8737,37.499 46.2517,27.798 C49.6367,18.065 58.0287,10.207 65.0287,10.207 C68.3387,10.207 70.7527,11.982 71.9837,14.916 C66.1037,16.135 59.6817,22.176 56.9087,29.448 C54.4637,35.878 55.6047,41.336 59.3187,43.376 C57.1227,44.652 54.8767,45.376 52.7697,45.376 M34.0427,52.836 C24.1877,52.836 20.0677,41.698 24.8427,27.989 C29.6367,14.251 41.5007,3.131 51.3647,3.131 C55.7477,3.131 58.9847,5.33 60.8307,8.98 C52.5657,10.809 43.6327,19.29 39.7677,29.448 C36.1317,39.027 38.1267,47.091 44.0727,49.546 C40.7287,51.64 37.2767,52.836 34.0427,52.836 M74.0887,14.68 C73.8237,14.68 73.5677,14.698 73.2987,14.728 C71.7797,10.943 68.5727,8.611 64.0447,8.611 C63.4277,8.611 62.8177,8.649 62.1917,8.721 C60.0527,3.337 55.5307,0 49.0977,0 C36.3457,0 20.9877,13.19 14.8087,29.448 C8.6057,45.722 13.9457,58.918 26.6907,58.918 C33.0997,58.918 40.1947,55.572 46.4317,50.174 C46.9927,50.264 47.5797,50.312 48.1917,50.312 C52.7177,50.312 57.7017,47.975 62.0967,44.187 C62.3417,44.205 62.6087,44.213 62.8607,44.213 C69.2427,44.213 76.9537,37.608 80.0557,29.448 C83.1537,21.306 80.4937,14.68 74.0887,14.68" id="Fill-1" fill="#FFFFFF"></path>
                <path d="M15.1318,68.8159 C13.0288,67.6539 11.2378,67.1319 9.2768,67.1319 C5.3868,67.1319 2.5078,69.7559 2.5078,73.3139 C2.5078,76.9429 5.2968,79.4449 9.3868,79.4449 C11.2918,79.4449 13.3838,78.8119 15.2928,77.6189 L15.2928,80.1589 C13.6308,80.9849 11.8188,81.5819 9.1488,81.5819 C2.7788,81.5819 -0.0002,76.9099 -0.0002,73.5269 C-0.0002,68.5959 3.9098,64.9919 9.3108,64.9919 C11.0448,64.9919 12.8108,65.4049 15.1318,66.3319 L15.1318,68.8159 Z" id="Fill-4" fill="#FFFFFF"></path>
                <path d="M19.0976,75.935 C19.0976,78.195 20.5746,79.679 22.7106,79.679 C25.0536,79.679 26.5176,78.253 26.5176,75.964 C26.5176,73.904 24.9166,72.407 22.7106,72.407 C20.6186,72.407 19.0976,73.904 19.0976,75.935 M28.7846,75.935 C28.7846,79.302 26.3066,81.581 22.7406,81.581 C19.3036,81.581 16.8416,79.205 16.8416,75.935 C16.8416,72.88 19.4006,70.513 22.7406,70.513 C26.2396,70.513 28.7846,72.785 28.7846,75.935" id="Fill-7" fill="#FFFFFF"></path>
                <path d="M38.9687,73.5073 C37.7097,72.6963 36.8547,72.4583 35.8847,72.4583 C33.8737,72.4583 32.4807,73.9033 32.4807,76.0633 C32.4807,78.2533 33.9827,79.5863 36.2597,79.5863 C37.2067,79.5863 38.1077,79.3463 39.2157,78.8683 L39.2157,80.9643 C38.4707,81.2903 37.0477,81.5813 35.8847,81.5813 C32.5497,81.5813 30.2157,79.3803 30.2157,76.2493 C30.2157,72.7453 32.3487,70.5133 35.7407,70.5133 C37.0277,70.5133 37.8987,70.8043 38.9687,71.2553 L38.9687,73.5073 Z" id="Fill-9" fill="#FFFFFF"></path>
                <path d="M43.3457,72.1284 L43.3927,72.1284 C44.2477,71.1054 45.4827,70.5134 46.7257,70.5134 C48.9107,70.5134 50.5327,71.9424 50.5327,74.8444 L50.5327,81.3704 L48.3237,81.3704 L48.3237,74.7864 C48.3237,73.2224 47.4657,72.1934 46.1377,72.1934 C45.1657,72.1934 44.3917,72.6224 43.3457,73.7374 L43.3457,81.3704 L41.1207,81.3704 L41.1207,65.2114 L43.3457,65.2114 L43.3457,72.1284 Z" id="Fill-11" fill="#FFFFFF"></path>
                <mask id="mask-2" fill="white">
                    <use xlink:href="#path-1"></use>
                </mask>
                <g id="Clip-14"></g>
                <polygon id="Fill-13" fill="#FFFFFF" mask="url(#mask-2)" points="53.2 81.3705 55.397 81.3705 55.397 65.2115 53.2 65.2115"></polygon>
                <path d="M65.4609,74.9634 C65.3809,73.3574 64.4149,72.3394 62.8399,72.3394 C61.1489,72.3394 60.1379,73.2824 59.8319,74.9634 L65.4609,74.9634 Z M67.4469,80.3254 C66.1039,81.1714 64.8819,81.5814 62.9989,81.5814 C59.5119,81.5814 57.5619,78.8454 57.5619,75.9254 C57.5619,72.6964 59.7039,70.5134 62.7899,70.5134 C65.7619,70.5134 67.6429,72.4294 67.6429,76.3594 L59.7869,76.3594 C60.1379,78.4664 61.3969,79.5624 63.5449,79.5624 C64.8819,79.5624 66.1499,79.0834 67.4469,78.2844 L67.4469,80.3254 Z" id="Fill-15" fill="#FFFFFF" mask="url(#mask-2)"></path>
                <path d="M74.4004,76.103 C72.5194,76.718 70.8874,77.347 70.8874,78.595 C70.8874,79.458 71.5524,80.085 72.4594,80.085 C73.1664,80.085 73.8054,79.75 74.4004,79.205 L74.4004,76.103 Z M78.2224,80.74 C77.1994,81.384 76.7774,81.582 76.0864,81.582 C75.1114,81.582 74.5784,81.236 74.3884,80.489 C73.4084,81.218 72.3934,81.582 71.3774,81.582 C69.7294,81.582 68.6384,80.341 68.6384,78.964 C68.6384,76.862 70.6544,76.226 72.4454,75.612 L74.4004,74.943 L74.4004,74.382 C74.4004,73.04 73.7504,72.501 72.3934,72.501 C71.1844,72.501 69.9364,73.04 68.8734,74.258 L68.8734,71.96 C69.7294,70.986 70.9554,70.513 72.5734,70.513 C74.8204,70.513 76.6204,71.601 76.6204,74.025 L76.6204,79.492 C76.6204,79.903 76.7774,80.033 77.0464,80.033 C77.2684,80.033 77.7194,79.827 78.2224,79.458 L78.2224,80.74 Z" id="Fill-16" fill="#FFFFFF" mask="url(#mask-2)"></path>
                <path d="M82.0576,70.7212 L82.0576,73.1672 L82.1146,73.1672 C83.2366,71.2862 84.3026,70.5132 85.3556,70.5132 C86.2526,70.5132 87.0916,70.9142 88.0166,71.7512 L86.8426,73.5722 C86.1766,72.9562 85.3006,72.5292 84.7826,72.5292 C83.2636,72.5292 82.0576,73.9712 82.0576,75.8022 L82.0576,81.3702 L79.8586,81.3702 L79.8586,70.7212 L82.0576,70.7212 Z" id="Fill-17" fill="#FFFFFF" mask="url(#mask-2)"></path>
                <path d="M93.6416,73.644 C94.0916,73.644 94.3946,73.468 94.3946,73.091 C94.3946,72.761 94.1276,72.55 93.7426,72.55 L92.7956,72.55 L92.7956,73.644 L93.6416,73.644 Z M92.2076,72.054 L93.8166,72.054 C94.7156,72.054 95.0196,72.613 95.0196,73.009 C95.0196,73.597 94.5966,74.02 93.9816,74.056 L93.9816,74.074 C94.2936,74.185 94.5236,74.498 94.8266,74.984 L95.2676,75.691 L94.5506,75.691 L94.2296,75.123 C93.7696,74.304 93.5956,74.148 93.1456,74.148 L92.7956,74.148 L92.7956,75.691 L92.2076,75.691 L92.2076,72.054 Z M93.6876,70.998 C92.1256,70.998 90.8676,72.255 90.8676,73.817 C90.8676,75.378 92.1256,76.647 93.6876,76.647 C95.2486,76.647 96.5156,75.378 96.5156,73.817 C96.5156,72.255 95.2486,70.998 93.6876,70.998 Z M93.6876,77.207 C91.8136,77.207 90.3066,75.691 90.3066,73.817 C90.3066,71.943 91.8136,70.437 93.6876,70.437 C95.5616,70.437 97.0766,71.943 97.0766,73.817 C97.0766,75.691 95.5616,77.207 93.6876,77.207 Z" id="Fill-18" fill="#FFFFFF" mask="url(#mask-2)"></path>
            </g>
        </g>
    </g>
</svg>