<?xml version="1.0" encoding="UTF-8"?>
<svg width="98px" height="83px" viewBox="0 0 98 83" version="1.1" xmlns="http://www.w3.org/2000/svg" xmlns:xlink="http://www.w3.org/1999/xlink">
    <!-- Generator: Sketch 48.2 (47327) - http://www.bohemiancoding.com/sketch -->
    <title>Styleguide/Logo/Full/Colour</title>
    <desc>Created with Sketch.</desc>
    <defs>
        <polygon id="path-1" points="0.221966354 0.419 69.3480696 0.419 69.3480696 59.3365 0.221966354 59.3365"></polygon>
        <polygon id="path-3" points="0 0.4104 15.2928 0.4104 15.2928 17 0 17"></polygon>
        <polygon id="path-5" points="0 82.5815 97.076 82.5815 97.076 1.0005 0 1.0005"></polygon>
    </defs>
    <g id="Symbols" stroke="none" stroke-width="1" fill="none" fill-rule="evenodd">
        <g id="Styleguide/Logo/Full/Colour">
            <g id="Cochlear-Logo">
                <g id="Group-3" transform="translate(12.000000, 0.581500)">
                    <mask id="mask-2" fill="white">
                        <use xlink:href="#path-1"></use>
                    </mask>
                    <g id="Clip-2"></g>
                    <path d="M67.2217,28.7735 C64.8227,35.6435 58.8717,41.2135 53.9187,41.2135 C48.9867,41.2135 46.9237,35.6435 49.3317,28.7735 C51.7267,21.9015 57.6807,16.3195 62.6097,16.3195 C67.5467,16.3195 69.6117,21.9015 67.2217,28.7735 M40.7697,45.7945 C33.7837,45.7945 30.8737,37.9175 34.2517,28.2165 C37.6367,18.4835 46.0287,10.6255 53.0287,10.6255 C56.3387,10.6255 58.7527,12.4005 59.9837,15.3345 C54.1037,16.5535 47.6817,22.5945 44.9087,29.8665 C42.4637,36.2965 43.6047,41.7545 47.3187,43.7945 C45.1227,45.0705 42.8767,45.7945 40.7697,45.7945 M22.0427,53.2545 C12.1877,53.2545 8.0677,42.1165 12.8427,28.4075 C17.6367,14.6695 29.5007,3.5495 39.3647,3.5495 C43.7477,3.5495 46.9847,5.7485 48.8307,9.3985 C40.5657,11.2275 31.6327,19.7085 27.7677,29.8665 C24.1317,39.4455 26.1267,47.5095 32.0727,49.9645 C28.7287,52.0585 25.2767,53.2545 22.0427,53.2545 M62.0887,15.0985 C61.8237,15.0985 61.5677,15.1165 61.2987,15.1465 C59.7797,11.3615 56.5727,9.0295 52.0447,9.0295 C51.4277,9.0295 50.8177,9.0675 50.1917,9.1395 C48.0527,3.7555 43.5307,0.4185 37.0977,0.4185 C24.3457,0.4185 8.9877,13.6085 2.8087,29.8665 C-3.3943,46.1405 1.9457,59.3365 14.6907,59.3365 C21.0997,59.3365 28.1947,55.9905 34.4317,50.5925 C34.9927,50.6825 35.5797,50.7305 36.1917,50.7305 C40.7177,50.7305 45.7017,48.3935 50.0967,44.6055 C50.3417,44.6235 50.6087,44.6315 50.8607,44.6315 C57.2427,44.6315 64.9537,38.0265 68.0557,29.8665 C71.1537,21.7245 68.4937,15.0985 62.0887,15.0985" id="Fill-1" fill="#FFCA05" mask="url(#mask-2)"></path>
                </g>
                <g id="Group-6" transform="translate(0.000000, 65.581500)">
                    <mask id="mask-4" fill="white">
                        <use xlink:href="#path-3"></use>
                    </mask>
                    <g id="Clip-5"></g>
                    <path d="M15.1318,4.2344 C13.0288,3.0724 11.2378,2.5504 9.2768,2.5504 C5.3868,2.5504 2.5078,5.1744 2.5078,8.7324 C2.5078,12.3614 5.2968,14.8634 9.3868,14.8634 C11.2918,14.8634 13.3838,14.2304 15.2928,13.0374 L15.2928,15.5774 C13.6308,16.4034 11.8188,17.0004 9.1488,17.0004 C2.7788,17.0004 -0.0002,12.3284 -0.0002,8.9454 C-0.0002,4.0144 3.9098,0.4104 9.3108,0.4104 C11.0448,0.4104 12.8108,0.8234 15.1318,1.7504 L15.1318,4.2344 Z" id="Fill-4" fill="#231F20" mask="url(#mask-4)"></path>
                </g>
                <path d="M19.0976,76.935 C19.0976,79.195 20.5746,80.679 22.7106,80.679 C25.0536,80.679 26.5176,79.253 26.5176,76.964 C26.5176,74.904 24.9166,73.407 22.7106,73.407 C20.6186,73.407 19.0976,74.904 19.0976,76.935 M28.7846,76.935 C28.7846,80.302 26.3066,82.581 22.7406,82.581 C19.3036,82.581 16.8416,80.205 16.8416,76.935 C16.8416,73.88 19.4006,71.513 22.7406,71.513 C26.2396,71.513 28.7846,73.785 28.7846,76.935" id="Fill-7" fill="#231F20"></path>
                <path d="M38.9687,74.5073 C37.7097,73.6963 36.8547,73.4583 35.8847,73.4583 C33.8737,73.4583 32.4807,74.9033 32.4807,77.0633 C32.4807,79.2533 33.9827,80.5863 36.2597,80.5863 C37.2067,80.5863 38.1077,80.3463 39.2157,79.8683 L39.2157,81.9643 C38.4707,82.2903 37.0477,82.5813 35.8847,82.5813 C32.5497,82.5813 30.2157,80.3803 30.2157,77.2493 C30.2157,73.7453 32.3487,71.5133 35.7407,71.5133 C37.0277,71.5133 37.8987,71.8043 38.9687,72.2553 L38.9687,74.5073 Z" id="Fill-9" fill="#231F20"></path>
                <path d="M43.3457,73.1284 L43.3927,73.1284 C44.2477,72.1054 45.4827,71.5134 46.7257,71.5134 C48.9107,71.5134 50.5327,72.9424 50.5327,75.8444 L50.5327,82.3704 L48.3237,82.3704 L48.3237,75.7864 C48.3237,74.2224 47.4657,73.1934 46.1377,73.1934 C45.1657,73.1934 44.3917,73.6224 43.3457,74.7374 L43.3457,82.3704 L41.1207,82.3704 L41.1207,66.2114 L43.3457,66.2114 L43.3457,73.1284 Z" id="Fill-11" fill="#231F20"></path>
                <mask id="mask-6" fill="white">
                    <use xlink:href="#path-5"></use>
                </mask>
                <g id="Clip-14"></g>
                <polygon id="Fill-13" fill="#231F20" mask="url(#mask-6)" points="53.2 82.3705 55.397 82.3705 55.397 66.2115 53.2 66.2115"></polygon>
                <path d="M65.4609,75.9634 C65.3809,74.3574 64.4149,73.3394 62.8399,73.3394 C61.1489,73.3394 60.1379,74.2824 59.8319,75.9634 L65.4609,75.9634 Z M67.4469,81.3254 C66.1039,82.1714 64.8819,82.5814 62.9989,82.5814 C59.5119,82.5814 57.5619,79.8454 57.5619,76.9254 C57.5619,73.6964 59.7039,71.5134 62.7899,71.5134 C65.7619,71.5134 67.6429,73.4294 67.6429,77.3594 L59.7869,77.3594 C60.1379,79.4664 61.3969,80.5624 63.5449,80.5624 C64.8819,80.5624 66.1499,80.0834 67.4469,79.2844 L67.4469,81.3254 Z" id="Fill-15" fill="#231F20" mask="url(#mask-6)"></path>
                <path d="M74.4004,77.103 C72.5194,77.718 70.8874,78.347 70.8874,79.595 C70.8874,80.458 71.5524,81.085 72.4594,81.085 C73.1664,81.085 73.8054,80.75 74.4004,80.205 L74.4004,77.103 Z M78.2224,81.74 C77.1994,82.384 76.7774,82.582 76.0864,82.582 C75.1114,82.582 74.5784,82.236 74.3884,81.489 C73.4084,82.218 72.3934,82.582 71.3774,82.582 C69.7294,82.582 68.6384,81.341 68.6384,79.964 C68.6384,77.862 70.6544,77.226 72.4454,76.612 L74.4004,75.943 L74.4004,75.382 C74.4004,74.04 73.7504,73.501 72.3934,73.501 C71.1844,73.501 69.9364,74.04 68.8734,75.258 L68.8734,72.96 C69.7294,71.986 70.9554,71.513 72.5734,71.513 C74.8204,71.513 76.6204,72.601 76.6204,75.025 L76.6204,80.492 C76.6204,80.903 76.7774,81.033 77.0464,81.033 C77.2684,81.033 77.7194,80.827 78.2224,80.458 L78.2224,81.74 Z" id="Fill-16" fill="#231F20" mask="url(#mask-6)"></path>
                <path d="M82.0576,71.7212 L82.0576,74.1672 L82.1146,74.1672 C83.2366,72.2862 84.3026,71.5132 85.3556,71.5132 C86.2526,71.5132 87.0916,71.9142 88.0166,72.7512 L86.8426,74.5722 C86.1766,73.9562 85.3006,73.5292 84.7826,73.5292 C83.2636,73.5292 82.0576,74.9712 82.0576,76.8022 L82.0576,82.3702 L79.8586,82.3702 L79.8586,71.7212 L82.0576,71.7212 Z" id="Fill-17" fill="#231F20" mask="url(#mask-6)"></path>
                <path d="M93.6416,74.644 C94.0916,74.644 94.3946,74.468 94.3946,74.091 C94.3946,73.761 94.1276,73.55 93.7426,73.55 L92.7956,73.55 L92.7956,74.644 L93.6416,74.644 Z M92.2076,73.054 L93.8166,73.054 C94.7156,73.054 95.0196,73.613 95.0196,74.009 C95.0196,74.597 94.5966,75.02 93.9816,75.056 L93.9816,75.074 C94.2936,75.185 94.5236,75.498 94.8266,75.984 L95.2676,76.691 L94.5506,76.691 L94.2296,76.123 C93.7696,75.304 93.5956,75.148 93.1456,75.148 L92.7956,75.148 L92.7956,76.691 L92.2076,76.691 L92.2076,73.054 Z M93.6876,71.998 C92.1256,71.998 90.8676,73.255 90.8676,74.817 C90.8676,76.378 92.1256,77.647 93.6876,77.647 C95.2486,77.647 96.5156,76.378 96.5156,74.817 C96.5156,73.255 95.2486,71.998 93.6876,71.998 Z M93.6876,78.207 C91.8136,78.207 90.3066,76.691 90.3066,74.817 C90.3066,72.943 91.8136,71.437 93.6876,71.437 C95.5616,71.437 97.0766,72.943 97.0766,74.817 C97.0766,76.691 95.5616,78.207 93.6876,78.207 Z" id="Fill-18" fill="#231F20" mask="url(#mask-6)"></path>
            </g>
        </g>
    </g>
</svg>