<?xml version="1.0" encoding="UTF-8"?>
<svg width="34px" height="34px" viewBox="0 0 34 34" version="1.1" xmlns="http://www.w3.org/2000/svg" xmlns:xlink="http://www.w3.org/1999/xlink">
    <!-- Generator: Sketch 48.2 (47327) - http://www.bohemiancoding.com/sketch -->
    <title>Icon/Social/Google_</title>
    <desc>Created with Sketch.</desc>
    <defs>
        <path d="M31.5676098,9.36791597 L31.5676098,12.0445826 L28.9369792,12.0445826 L28.9369792,14.7212493 L26.3063486,14.7212493 L26.3063486,12.0445826 L23.6757179,12.0445826 L23.6757179,9.36791597 L26.3063486,9.36791597 L26.3063486,6.6912493 L28.9369792,6.6912493 L28.9369792,9.36791597 L31.5676098,9.36791597 Z M0.00648730701,10.719365 C-0.200017197,5.19873997 4.55353235,0.0983516357 9.98315397,0.0327733024 C12.7505774,-0.206788364 15.4417125,0.886629969 17.5396405,2.66928997 C16.6794242,3.6302133 15.8047396,4.5817683 14.872181,5.47042164 C13.0281089,4.33149997 10.8065414,3.46292164 8.65337019,4.23380164 C5.17699181,5.23888997 3.07248731,9.4158283 4.35755037,12.8767583 C5.42295578,16.4902583 9.74113596,18.47233 13.1280729,16.9573366 C14.8813882,16.3176133 16.0375504,14.6728016 16.5439468,12.9021866 C14.534145,12.8620366 12.5243432,12.887465 10.5158567,12.8299166 C10.5119107,11.61471 10.5053342,10.4035183 10.5119107,9.1869733 C13.8607035,9.1829583 17.2173882,9.1709133 20.5727576,9.2030333 C20.7792621,12.180825 20.3465233,15.3700733 18.4432621,17.7643516 C15.8363071,21.17844 11.0183071,22.1795133 7.10129812,20.8398416 C2.93964046,19.4493133 -0.0842694497,15.1867216 0.00648730701,10.719365 Z" id="path-1"></path>
    </defs>
    <g id="Symbols" stroke="none" stroke-width="1" fill="none" fill-rule="evenodd">
        <g id="Icon/Social/Google_">
            <g id="Styleguide/Colour/Purple" transform="translate(1.000000, 6.000000)">
                <mask id="mask-2" fill="white">
                    <use xlink:href="#path-1"></use>
                </mask>
                <use id="Mask" fill="#FFFFFF" xlink:href="#path-1"></use>
                <g mask="url(#mask-2)" fill="#3F1482" id="Rectangle-4-Copy-7">
                    <g transform="translate(-8.648649, -9.680000)">
                        <rect x="0" y="0" width="43" height="44"></rect>
                    </g>
                </g>
            </g>
        </g>
    </g>
</svg>