<?xml version="1.0" encoding="UTF-8"?>
<svg width="34px" height="34px" viewBox="0 0 34 34" version="1.1" xmlns="http://www.w3.org/2000/svg" xmlns:xlink="http://www.w3.org/1999/xlink">
    <!-- Generator: Sketch 48.2 (47327) - http://www.bohemiancoding.com/sketch -->
    <title>Icon/Social/Google_</title>
    <desc>Created with Sketch.</desc>
    <defs>
        <path d="M32.5676098,15.367916 L32.5676098,18.0445826 L29.9369792,18.0445826 L29.9369792,20.7212493 L27.3063486,20.7212493 L27.3063486,18.0445826 L24.6757179,18.0445826 L24.6757179,15.367916 L27.3063486,15.367916 L27.3063486,12.6912493 L29.9369792,12.6912493 L29.9369792,15.367916 L32.5676098,15.367916 Z M1.00648731,16.719365 C0.799982803,11.19874 5.55353235,6.09835164 10.983154,6.0327733 C13.7505774,5.79321164 16.4417125,6.88662997 18.5396405,8.66928997 C17.6794242,9.6302133 16.8047396,10.5817683 15.872181,11.4704216 C14.0281089,10.3315 11.8065414,9.46292164 9.65337019,10.2338016 C6.17699181,11.23889 4.07248731,15.4158283 5.35755037,18.8767583 C6.42295578,22.4902583 10.741136,24.47233 14.1280729,22.9573366 C15.8813882,22.3176133 17.0375504,20.6728016 17.5439468,18.9021866 C15.534145,18.8620366 13.5243432,18.887465 11.5158567,18.8299166 C11.5119107,17.61471 11.5053342,16.4035183 11.5119107,15.1869733 C14.8607035,15.1829583 18.2173882,15.1709133 21.5727576,15.2030333 C21.7792621,18.180825 21.3465233,21.3700733 19.4432621,23.7643516 C16.8363071,27.17844 12.0183071,28.1795133 8.10129812,26.8398416 C3.93964046,25.4493133 0.91573055,21.1867216 1.00648731,16.719365 Z" id="path-1"></path>
    </defs>
    <g id="Symbols" stroke="none" stroke-width="1" fill="none" fill-rule="evenodd">
        <g id="Icon/Social/Google_">
            <mask id="mask-2" fill="white">
                <use xlink:href="#path-1"></use>
            </mask>
            <use id="Mask" fill="#FFFFFF" xlink:href="#path-1"></use>
            <g id="Styleguide/Colour/White" mask="url(#mask-2)" fill="#FFFFFF">
                <g transform="translate(-7.648649, -3.680000)" id="Rectangle-4-Copy-7">
                    <rect x="0" y="0" width="43" height="44"></rect>
                </g>
            </g>
        </g>
    </g>
</svg>