<?xml version="1.0" encoding="UTF-8"?>
<svg width="34px" height="34px" viewBox="0 0 34 34" version="1.1" xmlns="http://www.w3.org/2000/svg" xmlns:xlink="http://www.w3.org/1999/xlink">
    <!-- Generator: Sketch 48.2 (47327) - http://www.bohemiancoding.com/sketch -->
    <title>Icon/Social/Twitter</title>
    <desc>Created with Sketch.</desc>
    <defs>
        <path d="M27.8695652,10.9230769 L27.8695652,11.6410256 C27.8695652,19.3589744 22.1304348,28.3333333 11.6956522,28.3333333 C8.39130435,28.3333333 5.43478261,27.4358974 3,25.6410256 L4.39130435,25.6410256 C7,25.6410256 9.60869565,24.7435897 11.5217391,23.1282051 C9.08695652,23.1282051 7,21.3333333 6.13043478,19 C6.47826087,19 6.82608696,19.1794872 7.17391304,19.1794872 C7.69565217,19.1794872 8.2173913,19.1794872 8.73913043,19 C6.13043478,18.4615385 4.2173913,16.1282051 4.2173913,13.2564103 L4.2173913,13.2564103 C4.91304348,13.6153846 5.7826087,13.974359 6.82608696,13.974359 C5.26086957,12.8974359 4.2173913,11.1025641 4.2173913,9.12820513 C4.2173913,8.05128205 4.56521739,6.97435897 4.91304348,6.07692308 C7.69565217,9.66666667 11.8695652,12 16.7391304,12.1794872 C16.5652174,11.8205128 16.5652174,11.2820513 16.5652174,10.9230769 C16.5652174,7.69230769 19.173913,5 22.3043478,5 C23.8695652,5 25.4347826,5.71794872 26.4782609,6.79487179 C27.6956522,6.61538462 29.0869565,6.07692308 30.1304348,5.35897436 C29.7826087,6.79487179 28.7391304,7.87179487 27.6956522,8.58974359 C28.9130435,8.41025641 29.9565217,8.05128205 31,7.69230769 C29.9565217,9.12820513 28.9130435,10.2051282 27.8695652,10.9230769 Z" id="path-1"></path>
    </defs>
    <g id="Symbols" stroke="none" stroke-width="1" fill="none" fill-rule="evenodd">
        <g id="Icon/Social/Twitter">
            <mask id="mask-2" fill="white">
                <use xlink:href="#path-1"></use>
            </mask>
            <use id="Mask" fill="#FFFFFF" xlink:href="#path-1"></use>
            <g id="Styleguide/Colour/Purple" mask="url(#mask-2)" fill="#3F1482">
                <g transform="translate(-11.000000, -6.000000)" id="Rectangle-4-Copy-7">
                    <rect x="0" y="0" width="50" height="50"></rect>
                </g>
            </g>
        </g>
    </g>
</svg>